<svg width="38" height="47" viewBox="0 0 38 47" fill="none" xmlns="http://www.w3.org/2000/svg">
<path d="M0 40.7617V15.1953C0 11.2695 1.95312 9.29688 5.82031 9.29688H9.02344V5.87891C9.02344 1.97266 10.9766 0 14.8438 0H32.1875C36.0352 0 37.9883 1.99219 37.9883 5.87891V31.4648C37.9883 35.3516 36.0352 37.3438 32.1875 37.3438H28.9844V40.7617C28.9844 44.6484 27.0312 46.6406 23.1641 46.6406H5.82031C1.95312 46.6406 0 44.668 0 40.7617ZM17.8516 5.3125C17.8516 5.87891 18.2422 6.42578 19.043 6.42578H27.9688C28.7891 6.42578 29.1797 5.87891 29.1797 5.3125V4.90234C29.1797 4.33594 28.7891 3.78906 27.9688 3.78906H19.043C18.2227 3.78906 17.8516 4.33594 17.8516 4.90234V5.3125ZM3.20312 40.6641C3.20312 42.4609 4.16016 43.457 6.01562 43.457H22.9492C24.8438 43.457 25.8008 42.4609 25.8008 40.6641V15.293C25.8008 13.4961 24.8438 12.5 22.9492 12.5H6.01562C4.16016 12.5 3.20312 13.4961 3.20312 15.293V40.6641ZM14.4922 35.957C13.7695 35.957 13.2617 35.4492 13.2617 34.7461V26.8945L13.3984 23.6328L11.8359 25.5078L10.0586 27.2852C9.84375 27.5 9.55078 27.6562 9.21875 27.6562C8.55469 27.6562 8.04688 27.168 8.04688 26.5039C8.04688 26.1719 8.16406 25.8789 8.37891 25.6641L13.5547 20.5078C13.8672 20.1758 14.1406 20.0195 14.4922 20.0195C14.8828 20.0195 15.1562 20.1953 15.4688 20.5078L20.6055 25.6641C20.8398 25.8789 20.957 26.1719 20.957 26.5039C20.957 27.168 20.4492 27.6562 19.7656 27.6562C19.4336 27.6562 19.1406 27.5195 18.9258 27.2852L17.168 25.5078L15.6055 23.6133L15.7227 26.8945V34.7461C15.7227 35.4492 15.2148 35.957 14.4922 35.957Z" fill="#0C0E4A"/>
<defs>
<linearGradient id="paint0_linear_228_30" x1="19.0039" y1="2.17969" x2="19.0039" y2="60.6797" gradientUnits="userSpaceOnUse">
<stop stop-color="#FF8400"/>
<stop offset="0.341345" stop-color="#FBD802"/>
<stop offset="1" stop-color="#FBD802" stop-opacity="0"/>
</linearGradient>
</defs>
</svg>
