<svg width="37" height="37" viewBox="0 0 37 37" fill="none" xmlns="http://www.w3.org/2000/svg">
<path d="M1.60156 11.9336C0.566406 11.9336 0 11.3672 0 10.3125V5.80078C0 1.95312 1.99219 0 5.89844 0H10.3906C11.4453 0 12.0117 0.566406 12.0117 1.58203C12.0117 2.61719 11.4453 3.18359 10.3906 3.18359H5.99609C4.19922 3.18359 3.20312 4.14062 3.20312 6.01562V10.3125C3.20312 11.3672 2.63672 11.9336 1.60156 11.9336ZM34.7266 11.9336C33.6914 11.9336 33.125 11.3672 33.125 10.3125V6.01562C33.125 4.14062 32.1094 3.18359 30.332 3.18359H25.918C24.8828 3.18359 24.3164 2.61719 24.3164 1.58203C24.3164 0.566406 24.8828 0 25.918 0H30.4297C34.3359 0 36.3086 1.95312 36.3086 5.80078V10.3125C36.3086 11.3672 35.7617 11.9336 34.7266 11.9336ZM8.33984 11.0938C8.33984 10.3906 8.90625 9.82422 9.60938 9.82422H26.7188C27.4219 9.82422 27.9883 10.3906 27.9883 11.0938C27.9883 11.7969 27.4219 12.3633 26.7188 12.3633H9.60938C8.90625 12.3633 8.33984 11.7969 8.33984 11.0938ZM8.33984 18.125C8.33984 17.4414 8.90625 16.8555 9.60938 16.8555H26.7188C27.4219 16.8555 27.9883 17.4414 27.9883 18.125C27.9883 18.8477 27.4219 19.4141 26.7188 19.4141H9.60938C8.90625 19.4141 8.33984 18.8477 8.33984 18.125ZM8.33984 25.1758C8.33984 24.4727 8.90625 23.9062 9.60938 23.9062H20.8594C21.543 23.9062 22.1289 24.4727 22.1289 25.1758C22.1289 25.8789 21.543 26.4453 20.8594 26.4453H9.60938C8.90625 26.4453 8.33984 25.8789 8.33984 25.1758ZM5.89844 36.3086C1.99219 36.3086 0 34.3555 0 30.4883V25.9766C0 24.9414 0.566406 24.375 1.60156 24.375C2.61719 24.375 3.20312 24.9414 3.20312 25.9766V30.293C3.20312 32.168 4.19922 33.125 5.99609 33.125H10.3906C11.4453 33.125 12.0117 33.6914 12.0117 34.707C12.0117 35.7422 11.4453 36.3086 10.3906 36.3086H5.89844ZM25.918 36.3086C24.8828 36.3086 24.3164 35.7422 24.3164 34.707C24.3164 33.6914 24.8828 33.125 25.918 33.125H30.332C32.1094 33.125 33.125 32.168 33.125 30.293V25.9766C33.125 24.9414 33.6914 24.375 34.7266 24.375C35.7422 24.375 36.3086 24.9414 36.3086 25.9766V30.4883C36.3086 34.3359 34.3359 36.3086 30.4297 36.3086H25.918Z" fill="#0C0E4A"/>
<defs>
<linearGradient id="paint0_linear_228_27" x1="18.1641" y1="-3.03516" x2="18.1641" y2="55.4648" gradientUnits="userSpaceOnUse">
<stop stop-color="#FF8400"/>
<stop offset="0.341345" stop-color="#FBD802"/>
<stop offset="1" stop-color="#FBD802" stop-opacity="0"/>
</linearGradient>
</defs>
</svg>
