<svg width="42" height="40" viewBox="0 0 42 40" fill="none" xmlns="http://www.w3.org/2000/svg">
<path d="M7.88532 39.043C7.10407 38.4375 6.94782 37.4609 7.41657 36.0742L11.2447 24.6484L1.44001 17.5977C0.268134 16.7773 -0.220147 15.8594 0.0923532 14.9219C0.404853 13.9844 1.30329 13.5156 2.76813 13.5352L14.7994 13.6133L18.4517 2.12891C18.9205 0.722656 19.6041 0 20.6002 0C21.5963 0 22.2994 0.722656 22.7486 2.12891L26.4009 13.6133L38.4322 13.5352C39.897 13.5156 40.7955 13.9844 41.108 14.9219C41.44 15.8594 40.9517 16.7773 39.7603 17.5977L29.9556 24.6484L33.8033 36.0742C34.272 37.4609 34.0963 38.4375 33.315 39.043C32.4947 39.6484 31.4986 39.4531 30.3267 38.5938L20.6002 31.4453L10.8736 38.5938C9.70173 39.4531 8.70563 39.6484 7.88532 39.043Z" fill="#0C0E4A"/>
<defs>
<linearGradient id="paint0_linear_228_29" x1="20.6001" y1="-0.125" x2="20.6001" y2="58.375" gradientUnits="userSpaceOnUse">
<stop stop-color="#FF8400"/>
<stop offset="0.341345" stop-color="#FBD802"/>
<stop offset="1" stop-color="#FBD802" stop-opacity="0"/>
</linearGradient>
</defs>
</svg>
