<svg width="38" height="38" viewBox="0 0 38 38" fill="none" xmlns="http://www.w3.org/2000/svg">
<path d="M18.9258 37.8516C8.57422 37.8516 0 29.2773 0 18.9258C0 8.57422 8.57422 0 18.9062 0C29.2578 0 37.8516 8.57422 37.8516 18.9258C37.8516 29.2773 29.2773 37.8516 18.9258 37.8516ZM18.9258 34.5117C27.5781 34.5117 34.5117 27.5781 34.5117 18.9258C34.5117 10.2734 27.5586 3.33984 18.9062 3.33984C10.2734 3.33984 3.37891 10.2734 3.37891 18.9258C3.37891 27.5781 10.293 34.5117 18.9258 34.5117ZM24.6875 23.5742C23.8477 23.5742 23.2812 22.9883 23.2812 22.0703V18.9453L23.5547 16.1523L20.957 18.9453L14.2578 25.6445C13.9844 25.918 13.6133 26.0938 13.1445 26.0938C12.2852 26.0938 11.7188 25.5273 11.7188 24.6289C11.7188 24.2383 11.8945 23.8672 12.168 23.5938L18.8867 16.875L21.7188 14.2578L19.043 14.5508H15.7617C14.8438 14.5508 14.2383 14.0039 14.2383 13.1445C14.2383 12.2852 14.8242 11.7383 15.7227 11.7383H24.4531C25.4688 11.7383 26.0938 12.207 26.0938 13.3789V22.0312C26.0938 22.9492 25.5469 23.5742 24.6875 23.5742Z" fill="#0C0E4A"/>
<defs>
<linearGradient id="paint0_linear_228_31" x1="18.9453" y1="-2.23438" x2="18.9453" y2="56.2656" gradientUnits="userSpaceOnUse">
<stop stop-color="#FF8400"/>
<stop offset="0.341345" stop-color="#FBD802"/>
<stop offset="1" stop-color="#FBD802" stop-opacity="0"/>
</linearGradient>
</defs>
</svg>
