<svg width="38" height="39" viewBox="0 0 38 39" fill="none" xmlns="http://www.w3.org/2000/svg">
<path d="M0 18.9258C0 8.57422 8.57422 0 18.9062 0C29.2578 0 37.8516 8.57422 37.8516 18.9258C37.8516 20.0586 37.0898 20.6836 36.2695 20.6836C35.3906 20.6836 34.5117 20.0781 34.5117 18.9258C34.5117 10.2734 27.5586 3.33984 18.9062 3.33984C10.2734 3.33984 3.37891 10.2734 3.37891 18.9258C3.37891 24.7852 6.60156 29.8828 11.1914 32.4609C13.418 33.75 11.7383 36.5234 9.64844 35.3516C4.08203 32.3047 0 26.0352 0 18.9258ZM7.57812 18.9258C7.57812 12.6953 12.7148 7.55859 18.9258 7.55859C25.1367 7.55859 30.293 12.6953 30.293 18.8867C30.293 19.8047 29.5703 20.4883 28.6914 20.4883C27.8125 20.4883 27.1289 19.8047 27.0898 18.8867C26.9141 14.375 23.4375 10.7617 18.9258 10.7617C14.3945 10.7617 10.7812 14.375 10.7812 18.9258C10.7812 21.7969 12.2461 24.2969 14.4727 25.7422C16.1328 26.8945 14.4141 29.4922 12.4805 28.2031C9.80469 26.4844 7.57812 23.0273 7.57812 18.9258ZM18.2422 32.5195L18.418 17.7148C18.4375 16.9922 19.1602 16.7188 19.668 17.207L29.8242 27.6367C30.332 28.1836 29.9805 28.8867 29.2578 28.9258L25.293 29.0625L28.5938 36.6992C28.7695 37.0703 28.6523 37.5 28.2812 37.6562L26.4258 38.3984C26.0547 38.5352 25.6641 38.3398 25.5078 37.9688L22.3633 30.2148L19.5898 33.0273C19.1016 33.5156 18.2227 33.2617 18.2422 32.5195Z" fill="#0C0E4A"/>
<defs>
<linearGradient id="paint0_linear_228_28" x1="18.9453" y1="-2.23438" x2="18.9453" y2="56.2656" gradientUnits="userSpaceOnUse">
<stop stop-color="#FF8400"/>
<stop offset="0.341345" stop-color="#FBD802"/>
<stop offset="1" stop-color="#FBD802" stop-opacity="0"/>
</linearGradient>
</defs>
</svg>
