<svg width="38" height="38" viewBox="0 0 38 38" fill="none" xmlns="http://www.w3.org/2000/svg">
<path d="M18.9258 37.8516C8.57422 37.8516 0 29.2773 0 18.9258C0 8.57422 8.57422 0 18.9062 0C29.2578 0 37.8516 8.57422 37.8516 18.9258C37.8516 29.2773 29.2773 37.8516 18.9258 37.8516ZM18.9258 34.5117C27.5781 34.5117 34.5312 27.5781 34.5117 18.9258C34.4922 10.2734 27.5586 3.33984 18.9062 3.33984C10.2734 3.33984 3.37891 10.2734 3.37891 18.9258C3.37891 27.5781 10.293 34.5117 18.9258 34.5117ZM18.9258 30.625C12.5586 30.625 7.24609 25.3125 7.24609 18.9258C7.24609 12.5391 12.5391 7.20703 18.9258 7.20703C25.3125 7.20703 30.625 12.5195 30.625 18.9258C30.625 25.3125 25.332 30.625 18.9258 30.625ZM18.9258 27.5C23.5938 27.5 27.5195 23.5938 27.5195 18.9258C27.5195 14.2578 23.5742 10.332 18.9258 10.332C14.2578 10.332 10.3516 14.2383 10.3516 18.9258C10.3516 23.5742 14.2773 27.5 18.9258 27.5ZM18.9453 23.6523C16.3477 23.6523 14.1992 21.543 14.1992 18.9062C14.1992 16.3281 16.3477 14.1992 18.9453 14.1992C21.543 14.1992 23.6719 16.3281 23.6719 18.9062C23.6719 21.543 21.543 23.6523 18.9453 23.6523Z" fill="#0C0E4A"/>
<defs>
<linearGradient id="paint0_linear_228_26" x1="18.9453" y1="-2.23438" x2="18.9453" y2="56.2656" gradientUnits="userSpaceOnUse">
<stop stop-color="#FF8400"/>
<stop offset="0.341345" stop-color="#FBD802"/>
<stop offset="1" stop-color="#FBD802" stop-opacity="0"/>
</linearGradient>
</defs>
</svg>
