<svg width="112" height="38" viewBox="0 0 112 38" fill="none" xmlns="http://www.w3.org/2000/svg">
<g clip-path="url(#clip0_571_2694)">
<!-- Знак (геометрический символ) — жёлтый -->
<path d="M21.0104 0.00217819L0.00390625 37.1882L24.525 24.4766L11.8941 27.8613L20.9641 8.00945L28.4383 24.4709L2.33953 37.9971L36.8635 28.4173L21.0104 0.00217819Z" fill="#FBD701"/>
<path d="M24.5236 24.4765L7.12235 31.6222L7.08683 31.6368L7.10423 31.6021L20.9203 4.22674L20.9534 4.16101L20.9874 4.22637L32.4325 26.1886L32.4456 26.2138L32.4195 26.2238L2.33789 37.9971L32.4014 26.177L32.3883 26.2123L20.9207 4.26209L20.9877 4.26159L7.1297 31.6153L7.1117 31.5954L24.5236 24.4765Z" fill="#FBD701"/>
<!-- Текст HASTRA — белый -->
<path d="M54.5804 26.5012H52.0653V21.5146H46.5248V26.5012H44.0273V14.6222H46.5248V19.2884H52.0653V14.6223H54.5804V26.5012ZM67.8247 26.5012H64.9753L64.2542 24.4888H59.2239L58.4851 26.5012H55.6358L60.1737 14.6222H63.3043L67.8247 26.5012ZM63.5683 22.2626L61.739 17.1512L59.9098 22.2626H63.5683ZM73.0837 26.7151C70.9965 26.7151 69.3432 26.0858 68.1237 24.8272L69.4781 22.9037C70.4865 23.9723 71.7294 24.5066 73.2068 24.5066C73.8517 24.5066 74.3501 24.3819 74.7019 24.1326C75.0653 23.8713 75.2471 23.5567 75.2471 23.1888C75.2471 22.8681 75.0771 22.601 74.7371 22.3872C74.4087 22.1735 73.9925 22.0191 73.4882 21.9241C72.9958 21.8292 72.4564 21.6927 71.87 21.5146C71.2837 21.3364 70.7385 21.1346 70.2343 20.909C69.7419 20.6835 69.3257 20.3273 68.9856 19.8405C68.6573 19.3536 68.4931 18.76 68.4931 18.0595C68.4931 17.0384 68.8976 16.1835 69.7066 15.4948C70.5158 14.7943 71.5945 14.4441 72.943 14.4441C74.8074 14.4441 76.3317 14.9962 77.516 16.1004L76.1265 17.9527C75.2002 17.086 74.0628 16.6526 72.7143 16.6526C72.1866 16.6526 71.7762 16.7595 71.4831 16.9732C71.19 17.1869 71.0434 17.4778 71.0434 17.8458C71.0434 18.1308 71.2076 18.3742 71.5359 18.5761C71.8759 18.7661 72.2922 18.9086 72.7847 19.0036C73.2889 19.0985 73.8283 19.2409 74.4028 19.4309C74.9891 19.609 75.5285 19.8168 76.021 20.0543C76.5252 20.2799 76.9415 20.642 77.2697 21.1407C77.6098 21.6275 77.7798 22.2153 77.7798 22.9039C77.7798 24.0436 77.3753 24.9638 76.5662 25.6644C75.7688 26.3649 74.608 26.7152 73.0837 26.7152V26.7151ZM84.6922 26.5012H82.177V16.8485H78.7472V14.6223H88.1043V16.8485H84.6922V26.5012ZM99.2028 26.5012H96.3358L94.0317 22.2803H92.2025V26.5012H89.7049V14.6222H95.1926C96.4003 14.6222 97.3559 14.9783 98.0595 15.6907C98.7747 16.4032 99.1324 17.3234 99.1324 18.4513C99.1324 19.4249 98.8803 20.2144 98.3761 20.82C97.8836 21.4255 97.2798 21.8114 96.5646 21.9776L99.2028 26.5012ZM94.8233 20.0541C95.3392 20.0541 95.7613 19.9117 96.0896 19.6268C96.4178 19.3299 96.582 18.9381 96.582 18.4513C96.582 17.9645 96.4178 17.5786 96.0896 17.2937C95.7613 16.9969 95.3392 16.8485 94.8231 16.8485H92.2025V20.0541H94.8233ZM111.955 26.5012H109.105L108.384 24.4888H103.354L102.615 26.5012H99.7656L104.304 14.6222H107.434L111.955 26.5012ZM107.698 22.2626L105.869 17.1512L104.04 22.2626H107.698Z" fill="#FFFFFF"/>
</g>
<defs>
<clipPath id="clip0_571_2694">
<rect width="112" height="38" fill="white"/>
</clipPath>
</defs>
</svg>
